<?xml version="1.0" standalone="no"?>
<!DOCTYPE svg PUBLIC "-//W3C//DTD SVG 20010904//EN"
 "http://www.w3.org/TR/2001/REC-SVG-20010904/DTD/svg10.dtd">
<svg version="1.0" xmlns="http://www.w3.org/2000/svg"
 width="652.000000pt" height="652.000000pt" viewBox="0 0 652.000000 652.000000"
 preserveAspectRatio="xMidYMid meet">
<metadata>
Created by potrace 1.14, written by Peter Selinger 2001-2017
</metadata>
<g transform="translate(0.000000,652.000000) scale(0.100000,-0.100000)"
fill="#000000" stroke="none">
<path d="M1370 5755 c-7 -9 -10 -18 -7 -22 4 -3 2 -12 -4 -19 -7 -8 -7 -14 1
-19 8 -5 8 -11 -1 -21 -9 -11 -9 -14 0 -14 8 0 9 -5 2 -18 -6 -11 -6 -24 -1
-32 5 -9 5 -19 -2 -27 -7 -9 -7 -13 2 -13 10 0 10 -3 1 -14 -9 -10 -9 -16 -1
-21 8 -5 8 -11 -1 -21 -9 -11 -9 -14 0 -14 8 0 9 -5 2 -18 -6 -11 -6 -24 -1
-32 5 -9 5 -19 -2 -27 -7 -9 -7 -13 2 -13 10 0 10 -3 1 -14 -9 -10 -9 -16 -1
-21 8 -5 8 -11 -1 -21 -9 -11 -9 -14 0 -14 8 0 9 -6 2 -18 -6 -11 -6 -24 0
-34 6 -11 5 -19 -2 -24 -8 -5 -8 -8 0 -13 7 -5 6 -14 -5 -29 -8 -12 -20 -20
-25 -16 -17 10 -109 10 -109 -1 0 -7 -3 -7 -8 0 -4 6 -31 10 -60 10 -28 0 -52
-4 -52 -10 0 -7 -3 -7 -8 0 -4 6 -29 10 -57 10 -27 0 -53 -4 -57 -10 -5 -7 -8
-7 -8 0 0 11 -91 12 -108 1 -7 -4 -12 -3 -12 3 0 6 -7 8 -15 4 -9 -3 -14 -8
-11 -10 2 -2 0 -18 -4 -34 -5 -16 -5 -29 -1 -29 4 0 8 -7 8 -15 0 -8 -4 -15
-9 -15 -5 0 -4 -8 1 -18 5 -10 6 -24 1 -32 -4 -7 -4 -24 1 -37 12 -31 11 -36
-1 -28 -12 8 -9 -17 4 -26 4 -4 3 -16 -3 -27 -8 -14 -8 -23 -1 -27 8 -5 7 -11
-1 -21 -9 -11 -9 -14 0 -14 8 0 9 -6 3 -17 -5 -10 -6 -27 -1 -38 10 -27 11
-37 1 -31 -5 3 -9 -1 -9 -9 0 -8 5 -15 10 -15 5 0 6 -8 2 -17 -10 -23 -10 -33
-1 -62 5 -14 4 -21 -1 -18 -5 4 -10 0 -10 -8 0 -8 5 -15 10 -15 5 0 6 -8 2
-17 -10 -23 -10 -33 -1 -62 6 -16 5 -21 -3 -17 -13 9 -11 -16 3 -25 4 -4 4
-15 -2 -25 -5 -11 -6 -28 -2 -39 4 -11 3 -26 -2 -32 -7 -8 -7 -13 -1 -13 5 0
10 -7 10 -15 0 -8 -4 -15 -9 -15 -5 0 -4 -8 1 -18 5 -10 6 -24 1 -32 -4 -7 -5
-23 0 -35 4 -12 4 -29 -1 -38 -7 -12 -6 -17 3 -17 9 0 9 -3 -2 -10 -9 -6 -10
-10 -3 -10 8 0 9 -9 3 -30 -6 -21 -5 -30 3 -30 7 0 6 -4 -3 -10 -8 -5 -10 -10
-5 -10 12 0 13 -40 1 -58 -4 -7 -2 -12 4 -12 7 0 8 -6 2 -17 -5 -10 -6 -27 -1
-38 10 -27 11 -37 1 -31 -5 3 -9 -1 -9 -9 0 -8 5 -15 10 -15 5 0 6 -8 2 -17
-10 -23 -10 -33 -1 -62 5 -14 4 -21 -1 -18 -5 4 -10 0 -10 -8 0 -8 5 -15 10
-15 5 0 6 -8 2 -17 -12 -31 -13 -63 -1 -63 6 0 4 -5 -4 -10 -9 -6 -10 -10 -3
-10 8 0 9 -9 3 -30 -6 -21 -5 -30 3 -30 7 0 6 -4 -3 -10 -8 -5 -10 -10 -5 -10
6 0 10 -18 10 -39 1 -22 -3 -37 -7 -35 -11 7 -6 -19 6 -27 4 -4 4 -15 -2 -25
-5 -11 -6 -28 -2 -39 4 -11 3 -26 -2 -32 -7 -8 -7 -13 -1 -13 5 0 10 -7 10
-15 0 -8 -4 -15 -9 -15 -5 0 -4 -8 1 -18 5 -10 6 -24 1 -32 -5 -7 -4 -25 2
-39 11 -29 10 -31 -4 -48 -7 -9 -7 -13 1 -13 8 0 9 -6 3 -17 -5 -10 -6 -27 -1
-38 10 -27 11 -37 1 -31 -5 3 -9 -1 -9 -9 0 -8 5 -15 10 -15 5 0 6 -8 2 -17
-10 -23 -10 -33 -1 -62 6 -16 5 -21 -3 -17 -13 9 -11 -16 3 -25 4 -4 3 -16 -3
-27 -8 -14 -8 -23 -1 -27 8 -5 7 -11 -1 -21 -9 -11 -9 -14 0 -14 8 0 9 -6 3
-17 -5 -10 -6 -27 -1 -38 10 -27 11 -37 1 -31 -5 3 -9 -1 -9 -9 0 -8 5 -15 10
-15 5 0 6 -8 2 -17 -10 -23 -10 -33 -1 -62 5 -14 4 -21 -1 -18 -5 4 -10 0 -10
-8 0 -8 5 -15 10 -15 5 0 6 -8 2 -17 -12 -31 -13 -63 -1 -63 6 0 4 -5 -4 -10
-9 -6 -10 -10 -3 -10 8 0 9 -9 3 -30 -6 -21 -5 -30 3 -30 7 0 6 -4 -3 -10 -8
-5 -10 -10 -5 -10 12 0 13 -40 1 -58 -4 -7 -2 -12 4 -12 7 0 8 -6 2 -17 -5
-10 -6 -27 -1 -38 10 -27 11 -37 1 -31 -5 3 -9 -1 -9 -9 0 -8 5 -15 10 -15 5
0 6 -8 2 -17 -10 -23 -10 -33 -1 -62 5 -14 4 -21 -1 -18 -5 4 -10 0 -10 -8 0
-8 5 -15 10 -15 5 0 6 -8 2 -18 -12 -30 -13 -62 -1 -62 6 0 4 -5 -4 -10 -9 -6
-10 -10 -3 -10 8 0 9 -9 3 -30 -6 -21 -5 -30 3 -30 7 0 6 -4 -3 -10 -9 -6 -10
-10 -3 -10 8 0 9 -9 3 -30 -6 -21 -5 -30 3 -30 7 0 6 -4 -3 -10 -9 -6 -10 -10
-3 -10 8 0 9 -9 3 -30 -6 -21 -5 -30 3 -30 7 0 6 -4 -3 -10 -8 -5 -10 -10 -5
-10 12 0 13 -40 1 -58 -4 -7 -2 -12 4 -12 7 0 8 -6 2 -18 -5 -9 -6 -26 -1 -37
10 -27 11 -37 1 -31 -5 3 -9 -1 -9 -9 0 -8 5 -15 10 -15 5 0 6 -8 2 -17 -10
-23 -10 -33 -1 -62 6 -16 5 -21 -3 -17 -13 9 -11 -16 3 -25 4 -4 3 -17 -4 -29
-9 -18 -9 -24 0 -30 9 -5 9 -13 2 -26 -12 -22 4 -42 31 -38 9 1 17 -2 17 -8 0
-7 5 -6 14 1 10 8 16 9 21 1 3 -6 12 -7 18 -3 17 11 59 11 81 0 12 -6 16 -6
12 1 -7 12 42 11 61 -1 6 -4 14 -3 17 1 6 10 36 9 53 -1 6 -4 14 -3 17 1 6 11
56 10 73 -1 6 -4 14 -3 17 1 7 11 46 9 65 -2 9 -6 12 -5 8 2 -5 6 0 8 13 5 11
-3 17 -9 14 -14 -3 -5 -1 -9 5 -9 10 0 10 -18 -2 -37 -4 -6 -2 -13 5 -15 7 -3
8 -9 3 -18 -11 -18 -13 -90 -2 -97 4 -3 3 -11 -4 -19 -6 -8 -7 -14 -2 -14 11
0 11 -29 -1 -48 -4 -7 -2 -12 5 -12 9 0 9 -3 0 -14 -9 -11 -9 -15 0 -18 8 -3
9 -9 4 -18 -10 -17 -13 -127 -3 -143 4 -6 3 -16 -1 -22 -4 -5 -2 -21 5 -35 8
-14 14 -19 14 -11 0 11 3 11 15 1 9 -8 15 -8 15 -2 0 13 52 11 62 -3 5 -6 8
-6 8 2 0 12 17 12 37 0 6 -4 13 -2 15 4 3 9 10 9 27 -1 15 -7 21 -8 17 -1 -10
15 7 14 22 -1 9 -9 12 -9 12 -1 0 14 52 12 62 -2 5 -6 8 -6 8 2 0 12 17 12 38
0 6 -5 12 -4 12 2 0 13 53 9 62 -4 5 -6 8 -6 8 2 0 12 17 12 37 0 6 -4 13 -2
15 4 3 9 10 9 27 -1 13 -6 21 -7 17 -2 -7 12 42 11 61 -1 6 -4 13 -2 15 4 2 7
12 7 31 0 18 -7 26 -7 22 -1 -3 6 1 10 9 10 8 0 18 -5 21 -10 5 -8 12 -7 22 2
19 16 16 16 36 -1 10 -7 17 -9 17 -4 0 13 60 11 60 -2 0 -7 3 -7 8 0 9 12 72
15 72 3 0 -5 5 -6 12 -2 19 12 68 12 68 0 0 -6 5 -5 12 2 7 7 17 8 30 1 11 -6
18 -6 18 0 0 13 53 9 62 -4 5 -6 8 -6 8 2 0 12 17 12 38 0 6 -5 12 -4 12 2 0
13 53 9 62 -4 5 -6 8 -6 8 2 0 12 17 12 37 0 6 -4 13 -2 15 4 3 9 10 9 27 -1
13 -6 21 -8 17 -2 -3 6 7 9 24 8 17 0 30 -4 30 -9 0 -4 5 -5 12 -1 18 11 68
12 68 2 0 -5 5 -6 12 -2 18 11 68 12 75 1 3 -5 8 -4 13 2 5 9 14 9 34 1 17 -6
25 -6 21 0 -3 6 1 10 9 10 8 0 18 -5 21 -10 5 -8 12 -7 22 2 19 16 16 16 36
-1 10 -8 17 -9 17 -3 0 13 52 11 62 -3 5 -6 8 -6 8 2 0 12 17 12 38 0 6 -5 12
-4 12 2 0 13 53 9 62 -4 5 -6 8 -6 8 2 0 12 17 12 38 0 6 -5 12 -4 12 2 0 13
53 9 62 -4 5 -6 8 -6 8 2 0 12 17 12 37 0 6 -4 13 -2 15 4 3 9 10 9 27 -1 15
-7 21 -8 17 -1 -10 15 7 14 22 -1 9 -9 12 -9 12 -1 0 14 52 12 62 -2 5 -6 8
-6 8 2 0 12 17 12 38 0 6 -5 12 -4 12 2 0 13 53 9 62 -4 5 -6 8 -6 8 2 0 12
17 12 37 0 6 -4 13 -2 15 4 3 9 10 9 27 -1 13 -6 21 -7 17 -2 -7 12 42 11 61
-1 6 -4 13 -2 15 4 2 7 12 7 31 0 18 -7 26 -7 22 -1 -3 6 1 10 9 10 8 0 18 -5
21 -10 4 -7 11 -8 18 -1 20 16 23 16 40 2 10 -7 17 -9 17 -4 0 13 60 11 60 -2
0 -7 3 -7 8 0 9 12 72 15 72 3 0 -5 5 -6 12 -2 19 12 68 12 68 0 0 -6 5 -5 12
2 7 7 17 8 30 1 11 -6 18 -6 18 0 0 13 53 9 62 -4 5 -6 8 -6 8 2 0 12 17 12
38 0 6 -5 12 -4 12 2 0 13 53 9 62 -4 5 -6 8 -6 8 2 0 12 17 12 37 0 6 -4 13
-2 15 4 3 9 10 9 27 -1 13 -6 21 -8 17 -2 -3 6 7 9 24 8 17 0 30 -4 30 -9 0
-4 5 -5 12 -1 18 11 68 12 68 2 0 -5 5 -6 12 -2 18 11 68 12 75 1 3 -5 8 -4
13 2 5 9 14 9 34 1 17 -6 25 -6 21 0 -3 6 1 10 9 10 8 0 18 -5 21 -10 4 -7 12
-7 18 -2 14 10 27 10 45 -1 7 -5 12 -3 12 3 0 7 7 9 16 6 31 -12 62 4 66 35 3
17 0 29 -6 29 -6 0 -4 5 4 10 11 7 11 10 2 10 -7 0 -10 5 -7 11 11 17 11 89 0
89 -5 0 -3 5 5 10 11 7 11 10 2 10 -7 0 -10 5 -7 11 11 17 11 89 0 89 -5 0 -3
5 5 10 11 7 11 10 2 10 -7 0 -10 5 -7 11 11 17 11 89 0 89 -5 0 -3 5 5 10 13
8 13 10 1 10 -11 0 -12 3 -3 12 7 7 8 17 1 30 -7 12 -6 18 1 18 6 0 8 5 5 10
-3 5 -3 15 1 21 4 8 9 7 15 -2 6 -9 9 -10 9 -2 0 12 17 12 37 0 6 -4 14 -3 17
1 6 10 36 9 53 -1 6 -4 14 -3 17 2 7 10 67 8 86 -4 8 -5 11 -4 6 3 -7 12 41
11 61 -1 6 -4 14 -3 17 1 6 10 36 9 53 -1 6 -4 14 -3 17 1 6 11 56 10 72 0 6
-4 14 -4 18 0 4 4 13 7 19 8 7 0 19 2 27 2 17 2 21 52 5 52 -5 0 -4 4 4 9 12
8 12 12 2 25 -8 9 -9 16 -4 16 5 0 9 9 9 20 0 11 -5 20 -11 20 -6 0 -7 3 0 8
14 10 14 52 1 52 -7 0 -7 3 -1 8 6 4 10 16 10 27 0 11 -4 23 -10 27 -6 5 -4 8
5 8 13 0 13 1 0 10 -8 5 -10 10 -3 10 12 0 12 17 0 38 -5 6 -4 12 0 12 5 0 9
9 9 20 0 11 -5 20 -10 20 -6 0 -5 5 2 12 7 7 8 17 1 30 -5 10 -6 18 -2 18 10
0 8 134 -1 149 -4 6 -4 11 1 11 10 0 9 112 -1 128 -4 7 -3 12 1 12 5 0 9 9 9
20 0 11 -5 20 -11 20 -6 0 -7 3 0 8 14 10 14 52 1 52 -7 0 -7 3 -1 8 6 4 10
16 10 27 0 11 -4 23 -10 27 -6 5 -4 8 5 8 13 0 13 1 0 10 -8 5 -10 10 -3 10
12 0 12 17 0 38 -5 6 -4 12 0 12 5 0 9 9 9 20 0 11 -5 20 -10 20 -6 0 -5 5 2
12 7 7 8 17 1 30 -5 10 -6 18 -2 18 10 0 8 134 -1 149 -4 6 -4 11 1 11 10 0 9
112 -1 128 -4 7 -3 12 1 12 5 0 9 9 9 20 0 11 -5 20 -11 20 -6 0 -7 3 0 8 14
10 14 52 1 52 -7 0 -7 3 -1 8 6 4 10 16 10 27 0 11 -4 23 -10 27 -6 5 -4 8 5
8 13 0 13 1 0 10 -8 5 -10 10 -3 10 12 0 12 17 0 38 -5 6 -4 12 0 12 5 0 9 9
9 20 0 11 -5 20 -10 20 -6 0 -5 5 2 12 7 7 8 17 1 30 -5 10 -6 18 -2 18 10 0
8 134 -1 149 -4 6 -4 11 1 11 10 0 9 112 -1 128 -4 7 -3 12 1 12 5 0 9 9 9 20
0 11 -5 20 -11 20 -6 0 -7 3 0 8 14 10 14 52 1 52 -7 0 -7 3 -1 8 6 4 10 16
10 27 0 11 -4 23 -10 27 -6 5 -4 8 5 8 13 0 13 1 0 10 -8 5 -10 10 -3 10 12 0
12 17 0 38 -5 6 -4 12 0 12 5 0 9 9 9 20 0 11 -5 20 -10 20 -6 0 -5 5 2 12 7
7 8 17 1 30 -5 10 -6 18 -2 18 10 0 8 134 -1 149 -4 6 -4 11 1 11 10 0 9 112
-1 128 -4 7 -3 12 1 12 5 0 9 9 9 20 0 11 -5 20 -11 20 -6 0 -7 3 0 8 14 10
14 52 1 52 -7 0 -7 3 -1 8 6 4 10 16 10 27 0 11 -4 23 -10 27 -6 5 -4 8 5 8
13 0 13 1 0 10 -8 5 -10 10 -3 10 12 0 12 17 0 38 -5 6 -4 12 0 12 5 0 9 9 9
20 0 11 -5 20 -10 20 -6 0 -5 5 2 12 7 7 8 17 1 30 -5 10 -6 18 -2 18 10 0 8
134 -1 149 -4 6 -4 11 1 11 10 0 9 112 -1 128 -4 7 -3 12 1 12 5 0 9 9 9 20 0
11 -5 20 -11 20 -6 0 -7 3 0 8 14 10 14 52 1 52 -7 0 -7 3 -1 8 6 4 10 16 10
27 0 11 -4 23 -10 27 -6 5 -4 8 5 8 13 0 13 1 0 10 -8 5 -10 10 -3 10 12 0 12
17 0 38 -5 6 -4 12 0 12 5 0 9 9 9 20 0 11 -5 20 -10 20 -6 0 -5 5 2 12 7 7 8
17 1 30 -5 10 -6 18 -1 18 5 0 7 15 5 33 -3 17 -5 37 -6 42 0 6 -11 10 -24 10
-12 0 -23 -4 -23 -10 0 -7 -3 -7 -8 0 -4 6 -29 10 -57 10 -27 0 -53 -4 -57
-10 -5 -7 -8 -7 -8 0 0 6 -25 10 -55 10 -30 0 -55 -4 -55 -10 0 -7 -3 -7 -8 0
-4 6 -29 10 -57 10 -27 0 -53 -4 -57 -10 -5 -7 -8 -7 -8 0 0 6 -26 9 -61 9
-53 -2 -60 0 -56 16 2 9 0 25 -5 34 -5 9 -5 16 0 16 9 0 8 53 -3 69 -3 6 -2
11 2 11 10 0 9 53 -2 69 -3 6 -2 11 2 11 10 0 9 53 -2 69 -3 6 -2 11 2 11 10
0 9 53 -2 69 -3 6 -2 11 2 11 10 0 9 53 -2 69 -3 6 -2 11 4 11 7 0 7 8 1 25
-6 17 -6 25 1 25 6 0 8 4 5 9 -9 14 -55 19 -60 7 -3 -7 -5 -7 -5 1 -1 7 -8 10
-17 6 -9 -3 -20 0 -25 8 -6 10 -9 11 -9 1 0 -9 -15 -12 -55 -9 -36 3 -55 0
-55 -7 0 -7 -3 -7 -8 -1 -4 6 -18 10 -32 10 -14 0 -28 -4 -32 -10 -5 -6 -8 -6
-8 2 0 6 -9 9 -20 6 -13 -3 -20 0 -20 8 0 11 -2 11 -10 -1 -8 -12 -13 -13 -29
-3 -17 11 -22 10 -30 -5 -6 -9 -11 -12 -11 -7 0 6 -19 10 -42 10 -24 0 -46 -4
-50 -10 -5 -6 -8 -4 -8 5 0 13 -1 13 -10 0 -5 -8 -10 -10 -10 -3 0 6 -9 9 -20
6 -13 -3 -20 0 -20 8 0 11 -2 11 -10 -1 -8 -12 -13 -13 -29 -3 -17 11 -22 10
-30 -5 -6 -9 -11 -12 -11 -7 0 6 -19 10 -42 10 -24 0 -46 -4 -50 -10 -5 -7 -8
-7 -8 0 0 6 -11 10 -25 10 -14 0 -25 -4 -25 -10 0 -7 -3 -7 -8 0 -9 13 -85 13
-94 0 -5 -6 -8 -5 -8 3 0 7 -4 11 -9 7 -5 -3 -13 0 -17 6 -5 9 -11 7 -21 -6
-7 -11 -13 -15 -13 -9 0 12 -83 12 -92 -1 -5 -7 -8 -7 -8 0 0 6 -11 10 -25 10
-14 0 -25 -4 -25 -10 0 -7 -3 -7 -8 0 -9 13 -85 13 -94 0 -5 -6 -8 -6 -8 0 0
13 -100 13 -100 0 0 -7 -3 -7 -8 0 -4 6 -18 10 -32 10 -14 0 -28 -4 -32 -10
-5 -6 -8 -6 -8 2 0 6 -9 9 -20 6 -13 -3 -20 0 -20 8 0 11 -2 11 -10 -1 -8 -12
-13 -13 -29 -3 -17 11 -22 10 -30 -5 -6 -9 -11 -12 -11 -7 0 6 -19 10 -42 10
-24 0 -46 -4 -50 -10 -5 -6 -8 -4 -8 5 0 13 -1 13 -10 0 -6 -9 -10 -11 -10 -3
0 7 -7 10 -16 6 -9 -3 -20 0 -25 8 -6 10 -9 11 -9 1 0 -9 -15 -12 -55 -9 -36
3 -55 0 -55 -7 0 -7 -3 -7 -8 -1 -10 13 -152 14 -152 0 0 -6 -3 -7 -8 0 -4 6
-18 10 -32 10 -14 0 -28 -4 -32 -10 -5 -6 -8 -6 -8 2 0 6 -9 9 -20 6 -13 -3
-20 0 -20 8 0 11 -2 11 -10 -1 -8 -12 -13 -13 -29 -3 -17 11 -22 10 -30 -5 -6
-9 -11 -12 -11 -7 0 6 -19 10 -42 10 -24 0 -46 -4 -50 -10 -5 -6 -8 -4 -8 5 0
13 -1 13 -10 0 -6 -9 -10 -11 -10 -3 0 7 -7 10 -16 6 -9 -3 -20 0 -25 8 -6 10
-9 11 -9 1 0 -9 -15 -12 -55 -9 -36 3 -55 0 -55 -7 0 -7 -3 -7 -8 -1 -4 6 -20
10 -37 9 -16 0 -35 3 -42 8 -7 6 -15 3 -22 -9 -6 -10 -11 -13 -11 -8 0 6 -19
10 -42 10 -24 0 -46 -4 -50 -10 -5 -7 -8 -7 -8 0 0 6 -11 10 -25 10 -14 0 -25
-4 -25 -10 0 -7 -3 -7 -8 0 -9 13 -85 13 -94 0 -5 -6 -8 -5 -8 3 0 7 -4 11 -9
7 -5 -3 -13 0 -17 6 -5 9 -11 7 -21 -6 -7 -11 -13 -15 -13 -9 0 12 -83 12 -92
-1 -5 -7 -8 -7 -8 0 0 6 -11 10 -25 10 -14 0 -25 -4 -25 -10 0 -7 -3 -7 -8 0
-9 13 -85 13 -94 0 -5 -6 -8 -4 -8 5 0 13 -1 13 -10 0 -5 -8 -10 -10 -10 -3 0
6 -9 9 -20 6 -13 -3 -20 0 -20 8 0 11 -2 11 -10 -1 -8 -12 -13 -13 -29 -3 -17
11 -22 10 -30 -5 -6 -9 -11 -12 -11 -7 0 6 -19 10 -42 10 -24 0 -46 -4 -50
-10 -5 -6 -8 -4 -8 5 0 13 -1 13 -10 0 -6 -9 -10 -11 -10 -3 0 7 -7 10 -16 6
-9 -3 -20 0 -25 8 -6 10 -9 11 -9 1 0 -9 -15 -12 -55 -9 -36 3 -55 0 -55 -7 0
-7 -3 -7 -8 -1 -4 6 -18 10 -32 10 -14 0 -28 -4 -32 -10 -5 -6 -8 -6 -8 2 0 8
-9 9 -31 3 -26 -8 -29 -7 -19 5 7 8 10 15 7 15 -2 0 -10 -7 -17 -15z m166
-124 c10 8 14 8 14 0 0 -6 5 -11 11 -11 5 0 7 6 3 13 -5 8 -2 8 9 -2 11 -8 17
-9 17 -3 0 6 6 9 13 6 26 -10 137 -9 137 1 0 7 3 7 8 0 4 -5 40 -10 80 -10 41
0 72 4 72 10 0 7 3 7 8 0 4 -5 41 -10 82 -10 41 0 78 5 82 10 5 6 8 5 8 -4 0
-11 3 -11 15 -1 10 9 15 9 15 1 0 -6 5 -11 11 -11 5 0 7 6 3 13 -5 8 -2 8 9
-2 11 -8 17 -9 17 -3 0 6 6 9 14 6 27 -10 226 -9 227 1 0 6 3 4 6 -3 4 -10 8
-10 19 -1 10 8 14 8 14 0 0 -6 5 -11 11 -11 5 0 7 6 3 13 -5 8 -2 8 9 -2 11
-8 17 -9 17 -3 0 6 6 9 14 6 27 -10 146 -9 147 1 0 6 3 4 6 -3 4 -10 8 -10 19
-1 10 8 14 8 14 0 0 -6 5 -11 11 -11 5 0 7 6 3 13 -5 8 -2 8 9 -2 11 -8 17 -9
17 -3 0 6 6 9 14 6 27 -10 146 -9 147 1 0 6 3 4 6 -3 4 -10 8 -10 19 -1 10 8
14 8 14 0 0 -6 5 -11 11 -11 5 0 7 6 3 13 -5 8 -2 8 9 -2 11 -8 17 -9 17 -3 0
6 6 9 14 6 27 -10 146 -9 147 1 0 6 3 4 6 -3 4 -10 8 -10 19 -1 10 8 14 8 14
0 0 -6 5 -11 11 -11 5 0 7 6 3 13 -5 8 -2 8 9 -2 12 -9 17 -10 17 -2 0 7 4 10
9 6 19 -11 71 -12 72 -1 0 6 3 6 6 -2 4 -10 8 -10 19 -1 10 8 14 8 14 0 0 -6
5 -11 11 -11 5 0 7 6 3 13 -5 8 -2 8 9 -2 11 -8 17 -9 17 -3 0 6 6 9 14 6 27
-10 146 -9 147 1 0 6 3 4 6 -3 4 -10 8 -10 19 -1 10 8 14 8 14 0 0 -6 5 -11
11 -11 5 0 7 6 3 13 -5 8 -2 8 9 -2 11 -8 17 -9 17 -3 0 6 6 9 14 6 27 -10
146 -9 147 1 0 6 3 4 6 -3 4 -10 8 -10 19 -1 10 8 14 8 14 0 0 -6 5 -11 11
-11 5 0 7 6 3 13 -5 8 -2 8 9 -2 11 -8 17 -9 17 -3 0 6 6 9 14 6 27 -10 146
-9 147 1 0 6 3 4 6 -3 4 -10 8 -10 19 -1 10 8 14 8 14 0 0 -6 5 -11 11 -11 5
0 7 6 3 13 -5 8 -2 8 9 -2 11 -8 17 -9 17 -3 0 6 6 9 14 6 27 -10 226 -9 227
1 0 6 3 4 6 -3 4 -10 8 -10 19 -1 10 8 14 8 14 0 0 -6 5 -11 11 -11 5 0 7 6 3
13 -5 8 -2 8 9 -2 11 -8 17 -9 17 -3 0 6 6 9 14 6 27 -10 216 -9 216 1 0 7 3
7 8 0 4 -5 39 -10 77 -10 39 0 73 5 77 10 5 7 8 7 8 0 0 -5 18 -10 40 -10 22
0 40 4 40 8 0 5 6 5 12 0 7 -4 25 -6 39 -5 25 3 72 -29 53 -35 -5 -2 -8 -55
-7 -118 1 -87 -1 -114 -10 -108 -9 5 -8 2 0 -8 8 -10 12 -41 10 -80 l-2 -64
-50 0 c-27 0 -53 -4 -57 -10 -5 -7 -8 -7 -8 0 0 13 -103 13 -112 0 -5 -7 -8
-7 -8 0 0 6 -25 10 -55 10 -30 0 -55 -4 -55 -10 0 -7 -3 -7 -8 0 -4 6 -29 10
-57 10 -27 0 -53 -4 -57 -10 -5 -7 -8 -7 -8 0 0 6 -25 10 -55 10 -30 0 -55 -4
-55 -10 0 -7 -3 -7 -8 0 -4 6 -29 10 -57 10 -27 0 -53 -4 -57 -10 -5 -7 -8 -7
-8 0 0 6 -25 10 -55 10 -30 0 -55 -4 -55 -10 0 -7 -3 -7 -8 0 -4 6 -29 10 -57
10 -27 0 -53 -4 -57 -10 -5 -7 -8 -7 -8 0 0 6 -43 10 -110 10 -67 0 -110 -4
-110 -10 0 -5 -5 -3 -10 5 -6 10 -10 11 -10 3 0 -9 -7 -10 -27 -2 -20 7 -29 7
-32 -2 -2 -8 -6 -7 -12 2 -6 10 -9 10 -9 2 0 -9 -7 -10 -27 -2 -20 7 -29 7
-32 -2 -2 -8 -6 -7 -12 2 -6 10 -9 10 -9 2 0 -9 -7 -10 -27 -2 -20 7 -29 7
-32 -2 -2 -8 -6 -7 -12 2 -6 10 -9 10 -9 2 0 -9 -7 -10 -27 -2 -20 7 -29 7
-32 -2 -2 -8 -6 -7 -12 2 -6 10 -9 10 -9 2 0 -9 -7 -10 -27 -2 -20 7 -29 7
-32 -2 -2 -8 -6 -7 -12 2 -6 10 -9 10 -9 2 0 -9 -7 -10 -27 -2 -20 7 -29 7
-32 -2 -2 -8 -6 -7 -12 2 -6 10 -9 10 -9 2 0 -9 -7 -10 -27 -2 -20 7 -29 7
-32 -2 -2 -8 -6 -7 -12 2 -6 10 -9 10 -9 2 0 -9 -7 -10 -27 -2 -20 7 -29 7
-32 -2 -2 -8 -6 -7 -12 2 -6 10 -9 10 -9 2 0 -9 -7 -10 -27 -2 -20 7 -29 7
-32 -2 -2 -8 -6 -7 -12 2 -6 10 -9 10 -9 2 0 -9 -7 -10 -27 -2 -20 7 -29 7
-32 -2 -2 -8 -6 -7 -12 2 -6 10 -9 10 -9 2 0 -9 -7 -10 -27 -2 -20 7 -29 7
-32 -2 -2 -8 -6 -7 -12 2 -6 10 -9 10 -9 2 0 -9 -7 -10 -27 -2 -20 7 -29 7
-32 -2 -2 -8 -6 -7 -12 2 -6 10 -9 10 -9 2 0 -9 -7 -10 -27 -2 -20 7 -29 7
-32 -2 -2 -8 -6 -7 -12 2 -6 10 -9 10 -9 2 0 -9 -7 -10 -27 -2 -20 7 -29 7
-32 -2 -2 -8 -6 -7 -12 2 -6 10 -9 10 -9 2 0 -9 -7 -10 -27 -2 -20 7 -29 7
-32 -2 -2 -8 -6 -7 -12 2 -5 9 -9 10 -9 3 0 -8 -11 -9 -35 -4 -24 5 -35 4 -35
-4 0 -7 -3 -7 -8 -1 -4 6 -29 10 -57 10 -27 0 -53 -4 -57 -10 -5 -7 -8 -7 -8
0 0 13 -103 13 -112 0 -5 -7 -8 -7 -8 0 0 6 -25 10 -55 10 -30 0 -55 -4 -55
-10 0 -7 -3 -7 -8 0 -4 6 -29 10 -57 10 -27 0 -53 -4 -57 -10 -5 -7 -8 -7 -8
0 0 6 -25 10 -55 10 -30 0 -55 -4 -55 -10 0 -7 -3 -7 -8 0 -4 6 -29 10 -57 10
-27 0 -53 -4 -57 -10 -5 -7 -8 -7 -8 0 0 6 -25 10 -55 10 -30 0 -55 -4 -55
-10 0 -7 -3 -7 -8 0 -4 6 -29 10 -57 10 -27 0 -53 -4 -57 -10 -5 -6 -8 -6 -8
2 0 6 -9 9 -20 6 -19 -5 -25 5 -21 31 1 4 -3 14 -9 21 -6 7 -7 16 -2 18 10 7
10 207 -1 224 -4 6 -3 14 2 17 11 7 11 55 0 62 -5 3 -3 13 3 24 7 10 16 16 20
14 4 -3 8 1 9 8 0 10 2 11 6 0 4 -10 8 -10 19 -1z m-571 -541 c-8 -12 -8 -12
33 -1 18 6 30 6 28 2 -6 -9 101 -4 117 6 5 3 8 2 4 -3 -6 -11 176 -9 194 2 7
4 10 3 6 -3 -7 -11 98 -8 116 4 5 3 8 2 4 -3 -3 -5 29 -9 74 -9 46 0 79 4 79
10 0 7 3 7 8 0 9 -13 65 -14 74 0 5 7 8 7 8 -1 0 -11 92 -10 111 2 7 4 9 3 6
-3 -7 -11 98 -8 116 4 5 3 8 2 4 -3 -3 -5 29 -9 74 -9 46 0 79 4 79 10 0 7 3
7 8 0 9 -13 65 -14 74 0 5 7 8 7 8 -1 0 -11 92 -10 111 2 7 4 9 3 6 -3 -7 -11
98 -8 116 4 5 3 8 2 4 -3 -7 -13 226 -12 235 1 5 6 8 5 8 -2 0 -7 7 -10 16 -6
9 3 20 0 25 -8 6 -9 9 -10 9 -2 0 8 16 12 44 11 24 0 50 3 56 7 8 5 11 4 7 -1
-7 -13 146 -12 155 1 5 6 8 5 8 -2 0 -7 7 -10 16 -6 9 3 20 0 25 -8 6 -9 9
-10 9 -2 0 8 16 12 44 11 24 0 50 3 56 7 8 5 11 4 7 -1 -7 -13 146 -12 155 1
5 6 8 5 8 -2 0 -7 7 -10 16 -6 9 3 20 0 25 -8 6 -9 9 -10 9 -2 0 8 16 12 44
11 24 0 50 3 56 7 8 5 11 4 7 -1 -7 -13 146 -12 155 1 5 6 8 5 8 -2 0 -7 7
-10 16 -6 9 3 20 0 25 -8 6 -9 9 -10 9 -2 0 8 16 12 44 11 24 0 50 3 56 7 8 5
11 4 7 -1 -3 -6 11 -10 34 -10 21 1 39 6 39 11 0 7 3 7 8 0 9 -13 65 -14 74 0
5 7 8 7 8 -1 0 -11 92 -10 111 2 7 4 9 3 6 -3 -7 -11 98 -8 116 4 5 3 8 2 4
-3 -3 -5 29 -9 74 -9 46 0 79 4 79 10 0 7 3 7 8 0 9 -13 65 -14 74 0 5 7 8 7
8 -1 0 -11 92 -10 111 2 7 4 9 3 6 -3 -7 -11 98 -8 116 4 5 3 8 2 4 -3 -3 -5
29 -9 74 -9 46 0 79 4 79 10 0 7 3 7 8 0 9 -13 65 -14 74 0 5 7 8 7 8 -1 0
-11 92 -10 111 2 7 4 9 3 6 -3 -7 -11 98 -8 116 4 5 3 8 2 4 -3 -3 -5 29 -9
74 -9 46 0 79 4 79 10 0 7 3 7 8 0 9 -13 65 -14 74 0 5 7 8 7 8 -1 0 -6 20 -9
51 -8 34 2 56 -2 66 -12 8 -8 10 -14 5 -14 -6 0 -7 -14 -2 -35 5 -24 4 -35 -4
-36 -6 0 -5 -3 3 -6 11 -5 11 -7 0 -14 -12 -8 -11 -11 1 -19 8 -5 11 -10 5
-10 -10 0 -11 -149 -1 -175 3 -8 0 -15 -6 -15 -6 0 -5 -6 3 -17 10 -11 10 -14
2 -9 -7 4 -13 2 -13 -3 0 -6 5 -11 11 -11 5 0 7 -6 3 -12 -10 -16 -11 -57 -2
-85 5 -15 3 -23 -3 -23 -7 0 -6 -6 2 -17 10 -11 10 -14 2 -9 -7 4 -13 2 -13
-3 0 -6 5 -11 11 -11 5 0 7 -5 3 -12 -9 -14 -8 -163 1 -178 3 -5 1 -10 -6 -10
-8 0 -7 -5 2 -17 10 -11 10 -14 2 -9 -7 4 -13 2 -13 -3 0 -6 5 -11 11 -11 5 0
7 -5 3 -12 -9 -14 -8 -163 1 -178 3 -5 1 -10 -6 -10 -8 0 -7 -5 2 -17 10 -11
10 -14 2 -9 -7 4 -13 2 -13 -3 0 -6 5 -11 11 -11 5 0 7 -6 3 -12 -10 -16 -11
-57 -2 -85 5 -15 3 -23 -3 -23 -7 0 -6 -6 2 -17 10 -11 10 -14 2 -9 -7 4 -13
2 -13 -3 0 -6 5 -11 11 -11 5 0 7 -5 3 -12 -9 -14 -8 -163 1 -178 3 -5 1 -10
-6 -10 -8 0 -7 -5 2 -17 10 -11 10 -14 2 -9 -7 4 -13 2 -13 -3 0 -6 5 -11 11
-11 5 0 7 -5 3 -12 -9 -14 -8 -163 1 -178 3 -5 1 -10 -6 -10 -8 0 -7 -5 2 -17
10 -11 10 -14 2 -9 -7 4 -13 2 -13 -3 0 -6 5 -11 11 -11 5 0 7 -6 3 -12 -10
-16 -11 -57 -2 -85 5 -15 3 -23 -3 -23 -7 0 -6 -6 2 -17 10 -11 10 -14 2 -9
-7 4 -13 2 -13 -3 0 -6 5 -11 11 -11 5 0 7 -5 3 -12 -9 -14 -8 -163 1 -178 3
-5 1 -10 -6 -10 -8 0 -7 -5 2 -17 10 -11 10 -14 2 -9 -7 4 -13 2 -13 -3 0 -6
5 -11 11 -11 5 0 7 -5 3 -12 -9 -14 -8 -163 1 -178 3 -5 1 -10 -6 -10 -8 0 -7
-5 2 -17 10 -11 10 -14 2 -9 -7 4 -13 2 -13 -3 0 -6 5 -11 11 -11 5 0 7 -6 3
-12 -10 -16 -11 -57 -2 -85 5 -15 3 -23 -3 -23 -7 0 -6 -6 2 -17 10 -11 10
-14 2 -9 -7 4 -13 2 -13 -3 0 -6 5 -11 11 -11 5 0 7 -5 3 -12 -9 -14 -8 -163
1 -178 3 -5 1 -10 -6 -10 -8 0 -7 -5 2 -17 10 -11 10 -14 2 -9 -7 4 -13 2 -13
-3 0 -6 5 -11 11 -11 5 0 7 -5 3 -12 -9 -14 -8 -163 1 -178 3 -5 1 -10 -6 -10
-8 0 -7 -5 2 -17 10 -11 10 -14 2 -9 -7 4 -13 2 -13 -3 0 -6 5 -11 11 -11 5 0
7 -6 3 -12 -10 -16 -11 -57 -2 -85 5 -15 3 -23 -3 -23 -7 0 -6 -6 2 -17 10
-11 10 -14 2 -9 -7 4 -13 2 -13 -3 0 -6 5 -11 11 -11 5 0 7 -5 3 -12 -9 -14
-8 -163 1 -178 3 -5 1 -10 -6 -10 -8 0 -7 -5 2 -17 10 -11 10 -14 2 -9 -7 4
-13 2 -13 -3 0 -6 5 -11 11 -11 5 0 7 -5 3 -12 -4 -6 -7 -39 -7 -72 l0 -61
-2266 2 c-1246 1 -2273 2 -2282 2 -14 1 -16 13 -14 79 1 42 -1 87 -6 99 -5 12
-4 25 1 28 7 4 7 68 0 100 -1 6 -1 12 0 15 7 14 5 238 -1 257 -5 12 -4 25 1
28 9 6 6 87 -4 103 -3 6 -2 13 3 16 8 5 8 68 1 101 -1 6 -1 12 0 15 7 16 7 78
-1 97 -4 12 -5 24 0 27 9 6 7 208 -2 223 -4 7 -3 14 2 17 8 5 8 68 1 101 -1 6
-1 12 0 15 7 14 6 158 -1 177 -5 12 -4 25 1 28 7 4 7 68 0 100 -1 6 -1 12 0
15 1 3 4 24 6 48 3 30 0 41 -8 36 -7 -5 -8 -3 -3 5 13 22 15 82 3 75 -7 -5 -8
-2 -3 5 13 22 15 82 3 75 -7 -5 -8 -2 -3 5 13 22 15 82 3 75 -7 -5 -8 -2 -3 6
11 18 14 179 4 207 -5 12 -4 25 1 28 7 4 7 68 0 100 -1 6 -1 12 0 15 7 16 7
78 -1 97 -5 13 -4 25 1 28 7 4 7 68 0 100 -1 6 -1 12 0 15 8 16 5 128 -4 123
-5 -4 -6 -1 -1 6 13 22 15 82 3 75 -7 -5 -8 -2 -3 5 13 22 15 82 3 75 -7 -5
-8 -2 -3 5 13 22 15 82 3 75 -7 -5 -8 -2 -3 6 11 18 14 139 4 167 -5 12 -4 25
1 28 9 6 6 87 -4 103 -3 6 -2 13 2 16 10 6 9 172 -1 182 -4 4 -2 13 4 21 6 7
8 13 4 13 -4 0 -2 7 5 15 14 17 24 20 15 5z m592 -3613 c6 -4 14 -3 17 1 6 10
36 9 53 -1 6 -4 14 -3 17 1 6 11 56 10 73 -1 6 -4 14 -3 17 1 6 10 46 10 63
-1 6 -4 14 -3 17 1 6 10 36 9 53 -1 6 -4 14 -3 17 2 7 10 67 8 86 -4 8 -5 11
-4 6 3 -7 12 41 11 61 -1 6 -4 14 -3 17 1 6 10 36 9 53 -1 6 -4 14 -3 17 1 6
11 56 10 73 -1 6 -4 14 -3 17 1 6 10 46 10 63 -1 6 -4 14 -3 17 1 6 10 36 9
53 -1 6 -4 14 -3 17 2 7 10 67 8 86 -4 8 -5 11 -4 6 3 -7 12 41 11 61 -1 6 -4
14 -3 17 1 6 10 36 9 53 -1 6 -4 14 -3 17 1 6 11 56 10 73 -1 6 -4 14 -3 17 1
6 10 46 10 63 -1 6 -4 14 -3 17 1 6 10 36 9 53 -1 6 -4 14 -3 17 2 7 10 67 8
86 -4 8 -5 11 -4 6 3 -7 12 41 11 61 -1 6 -4 14 -3 17 1 6 10 36 9 53 -1 6 -4
14 -3 17 1 6 11 56 10 73 -1 6 -4 14 -3 17 1 6 10 46 10 63 -1 6 -4 14 -3 17
1 6 10 36 9 53 -1 6 -4 14 -3 17 2 7 10 67 8 86 -4 8 -5 11 -4 6 3 -7 12 41
11 61 -1 6 -4 14 -3 17 1 6 10 36 9 53 -1 6 -4 14 -3 17 1 6 11 56 10 73 -1 6
-4 14 -3 17 1 6 10 46 10 63 -1 6 -4 14 -3 17 1 6 10 36 9 53 -1 6 -4 14 -3
17 2 7 10 67 8 86 -4 8 -5 11 -4 6 3 -7 12 41 11 61 -1 6 -4 14 -3 17 1 6 10
36 9 53 -1 6 -4 14 -3 17 1 6 11 56 10 73 -1 6 -4 14 -3 17 1 6 10 46 10 63
-1 6 -4 14 -3 17 1 6 10 36 9 53 -1 6 -4 14 -3 17 2 7 10 67 8 86 -4 8 -5 11
-4 6 3 -7 12 41 11 61 -1 6 -4 14 -3 17 1 6 10 36 9 53 -1 6 -4 14 -3 17 1 6
11 56 10 73 -1 6 -4 14 -3 17 1 6 10 46 10 63 -1 6 -4 14 -3 17 1 6 10 36 9
53 -1 6 -4 14 -3 17 2 7 10 67 8 86 -4 9 -6 11 -4 6 4 -10 15 25 11 36 -4 5
-6 8 -6 8 2 0 13 18 12 39 -1 10 -6 12 -5 7 2 -5 8 -2 10 9 6 9 -4 14 -9 11
-12 -3 -2 -1 -13 5 -23 6 -13 6 -19 0 -19 -7 0 -7 -9 -1 -26 7 -16 7 -23 0
-19 -13 8 -13 -1 1 -27 8 -15 8 -19 0 -14 -14 9 -14 0 0 -26 8 -15 8 -19 0
-14 -14 9 -14 0 0 -26 8 -15 8 -19 0 -14 -12 8 -11 -21 2 -41 5 -7 4 -13 0
-13 -5 0 -7 -31 -6 -70 2 -38 -1 -70 -5 -71 -38 -5 -175 -3 -179 4 -2 4 -10 4
-16 0 -16 -10 -97 -10 -104 -1 -2 5 -10 5 -16 1 -16 -10 -97 -10 -104 -1 -2 5
-10 5 -16 1 -16 -10 -97 -10 -104 -1 -2 5 -10 5 -16 1 -16 -10 -97 -10 -104
-1 -2 5 -10 5 -16 1 -16 -10 -538 -10 -544 0 -2 4 -10 4 -16 0 -16 -10 -97
-10 -104 -1 -2 5 -10 5 -16 1 -16 -10 -178 -10 -184 0 -2 4 -10 4 -16 0 -16
-10 -97 -10 -104 -1 -2 5 -10 5 -16 1 -16 -10 -418 -10 -424 0 -2 4 -10 4 -16
0 -16 -10 -97 -10 -104 -1 -2 5 -10 5 -16 1 -16 -10 -97 -10 -104 -1 -2 5 -10
5 -16 1 -16 -10 -97 -10 -104 -1 -2 5 -10 5 -16 1 -16 -10 -97 -10 -104 -1 -2
5 -10 5 -16 1 -16 -10 -538 -10 -544 0 -2 4 -10 4 -16 0 -16 -10 -97 -10 -104
-1 -2 5 -10 5 -16 1 -7 -4 -55 -7 -107 -8 l-95 0 0 211 0 210 30 -1 c17 0 35
-4 42 -8z"/>
<path d="M3190 4488 c0 -3 -9 -4 -20 -1 -11 3 -27 -1 -36 -8 -13 -10 -17 -10
-23 0 -7 10 -13 10 -30 2 -12 -7 -27 -9 -34 -5 -6 5 -5 -1 3 -11 10 -12 10
-16 2 -11 -7 4 -20 2 -29 -6 -12 -9 -15 -9 -9 0 4 7 2 12 -8 12 -8 0 -18 -5
-22 -12 -5 -7 -3 -8 6 -3 9 5 11 4 6 -3 -4 -7 -16 -12 -27 -12 -10 0 -19 -6
-19 -12 0 -9 -4 -8 -10 2 -8 13 -10 12 -10 -3 0 -10 -4 -16 -9 -12 -5 3 -12 1
-16 -5 -4 -6 -10 -8 -15 -5 -4 3 -7 -3 -6 -13 1 -11 -5 -16 -16 -14 -10 2 -18
-2 -18 -9 0 -6 -7 -9 -14 -6 -10 4 -13 1 -9 -8 3 -8 -2 -18 -11 -21 -9 -3 -13
-11 -9 -17 4 -7 0 -8 -11 -4 -13 5 -17 3 -13 -7 4 -10 1 -13 -9 -9 -9 3 -14 0
-12 -8 2 -8 -3 -13 -11 -11 -12 3 -12 1 0 -14 9 -12 9 -15 2 -10 -8 4 -13 2
-13 -4 0 -6 -4 -9 -9 -5 -5 3 -13 0 -17 -6 -4 -8 -3 -9 4 -5 7 4 12 3 12 -1 0
-5 -9 -14 -20 -21 -12 -7 -18 -17 -15 -22 3 -6 1 -10 -5 -10 -6 0 -8 -4 -5
-10 3 -5 1 -10 -4 -10 -6 0 -11 -5 -11 -11 0 -5 6 -7 13 -4 6 4 2 -2 -9 -12
-12 -10 -21 -28 -19 -40 1 -13 -3 -23 -9 -23 -6 0 -4 -5 4 -10 12 -8 12 -10 1
-10 -11 0 -11 -3 -1 -15 11 -13 10 -14 -5 -8 -14 5 -17 3 -12 -10 4 -12 1 -17
-10 -17 -14 0 -14 -2 3 -15 10 -8 14 -15 8 -15 -6 0 -9 -25 -8 -65 1 -46 -2
-63 -10 -58 -6 4 -5 -1 2 -10 8 -9 11 -21 7 -27 -3 -5 1 -10 10 -10 9 0 13 -5
10 -10 -4 -6 -11 -8 -16 -5 -5 3 -6 -1 -3 -9 3 -9 10 -14 14 -11 5 3 12 0 16
-6 4 -8 3 -9 -4 -5 -16 10 -15 -7 1 -23 10 -11 9 -12 -3 -6 -13 8 -13 6 -2 -8
8 -9 11 -20 8 -26 -3 -5 0 -12 6 -15 10 -5 10 -7 0 -12 -9 -4 -3 -14 20 -31
18 -14 25 -23 16 -20 -12 4 -15 2 -11 -8 3 -8 9 -12 14 -9 8 4 13 -8 11 -27
-1 -4 17 -21 38 -38 22 -18 40 -39 40 -48 0 -9 6 -13 14 -10 11 4 13 1 9 -10
-4 -11 -2 -14 5 -9 7 4 12 1 12 -9 0 -11 5 -15 15 -11 8 3 15 2 15 -2 0 -5 7
-17 16 -28 8 -10 13 -13 9 -7 -4 9 -1 11 9 7 9 -3 13 -10 10 -15 -3 -5 4 -9
16 -9 12 0 19 -4 15 -9 -3 -5 -1 -12 5 -16 5 -3 10 -1 10 4 0 8 7 7 19 -1 11
-7 17 -16 14 -21 -3 -5 4 -4 16 2 17 10 22 9 27 -4 4 -9 12 -14 20 -11 7 3 18
-1 24 -9 8 -10 18 -11 36 -4 17 6 23 6 19 -1 -3 -6 0 -10 7 -11 88 -4 158 -3
158 3 0 4 7 5 15 2 8 -4 12 -11 8 -18 -4 -6 1 -5 10 3 20 16 23 25 5 15 -10
-5 -10 -3 0 7 11 12 14 12 22 -1 7 -10 10 -11 10 -2 0 6 5 12 11 12 5 0 7 -6
4 -12 -4 -7 1 -4 9 6 12 15 16 16 16 5 0 -11 2 -11 9 -1 4 7 13 12 19 10 6 -2
18 6 27 17 l17 20 -6 -20 c-6 -19 -5 -19 8 -2 7 9 24 17 37 17 17 0 20 3 10 9
-9 6 -10 11 -2 15 6 4 11 4 11 0 0 -3 7 -1 15 6 8 6 20 8 26 4 8 -4 9 -3 5 4
-4 7 -2 12 4 12 6 0 8 5 4 13 -5 7 -1 7 12 -3 10 -8 16 -11 12 -6 -8 9 27 46
45 46 9 0 9 2 -1 9 -10 6 -8 10 8 14 12 3 19 10 15 16 -3 6 1 11 9 11 8 0 18
5 22 12 5 7 3 8 -6 3 -9 -5 -11 -4 -6 3 4 7 13 12 21 12 8 0 17 4 20 10 4 6
-1 7 -12 4 -13 -4 -11 0 7 16 14 12 19 19 13 15 -8 -4 -11 -1 -7 9 3 9 12 12
22 8 15 -5 15 -3 4 10 -10 13 -10 18 -1 24 8 5 9 3 4 -6 -5 -9 -4 -11 3 -6 9
5 9 13 2 27 -8 14 -8 19 2 17 7 -2 14 7 16 20 2 12 7 20 11 17 5 -2 8 6 7 18
-1 12 5 28 14 35 8 8 10 11 3 8 -7 -4 -11 1 -10 14 1 13 6 19 16 15 10 -4 11
-2 5 7 -11 15 -11 89 0 106 4 7 2 12 -5 12 -9 0 -9 3 0 14 7 8 8 17 3 20 -5 3
-9 17 -9 31 0 14 -9 35 -19 47 -11 12 -13 18 -6 14 6 -4 12 -2 12 3 0 6 -6 11
-12 11 -9 0 -8 4 2 10 13 9 13 10 0 10 -13 0 -13 1 0 10 10 6 11 10 3 10 -7 0
-13 7 -13 16 0 9 -5 12 -12 8 -8 -5 -7 0 2 11 14 17 13 18 -2 12 -13 -4 -16
-1 -13 14 2 10 0 19 -4 19 -10 0 -37 61 -33 73 1 5 -2 6 -8 2 -6 -3 -7 -11 -4
-17 4 -6 2 -8 -4 -5 -5 4 -9 18 -8 31 2 16 -2 23 -13 22 -9 0 -15 5 -13 12 1
8 -2 11 -7 8 -5 -4 -17 4 -25 16 -12 17 -13 24 -3 30 6 4 7 8 1 8 -5 0 -15 -5
-22 -12 -12 -12 -15 -7 -11 19 1 11 -31 24 -43 17 -7 -4 -8 -3 -4 4 4 7 2 13
-3 13 -6 1 -15 2 -20 3 -5 0 -13 5 -18 10 -5 5 -2 6 7 2 8 -4 6 0 -4 8 -11 9
-30 16 -43 16 -13 0 -26 6 -29 14 -3 8 -14 13 -25 11 -10 -2 -19 0 -19 5 0 5
-15 7 -32 5 -25 -3 -29 -2 -18 5 11 8 8 10 -15 7 -16 -3 -34 -1 -40 3 -13 10
-115 17 -115 8z m-95 -18 c-3 -5 -12 -10 -18 -10 -7 0 -6 4 3 10 19 12 23 12
15 0z m57 -115 c5 -6 8 -6 8 1 0 13 89 13 109 0 10 -6 12 -6 7 2 -4 7 -2 12 3
12 6 0 11 -6 11 -12 0 -9 4 -8 10 2 8 13 14 8 12 -11 -1 -3 5 -6 13 -6 8 0 12
4 9 8 -2 4 0 10 6 14 5 3 10 -1 10 -10 0 -11 5 -15 15 -11 8 3 15 2 15 -3 0
-5 13 -7 30 -6 16 1 27 -1 24 -6 -7 -11 37 -29 51 -21 6 3 3 -3 -5 -13 -10
-13 -11 -16 -2 -11 8 5 20 2 30 -8 9 -9 36 -34 59 -55 27 -25 38 -41 30 -44
-6 -3 -1 -6 13 -6 20 -1 22 -3 10 -11 -11 -7 -11 -10 -2 -10 7 0 18 -13 23
-30 6 -16 15 -27 20 -24 5 3 9 -6 9 -20 0 -14 5 -28 11 -32 8 -4 7 -9 -2 -15
-10 -6 -11 -9 -1 -9 6 0 12 -9 12 -21 0 -13 -4 -18 -12 -13 -8 4 -10 3 -5 -2
5 -5 14 -9 20 -9 7 0 12 -27 13 -72 1 -47 -2 -71 -8 -67 -6 4 -5 -3 1 -15 8
-15 9 -21 1 -21 -6 0 -10 -8 -8 -18 2 -11 -4 -27 -12 -37 -9 -11 -10 -16 -2
-11 19 12 14 -1 -10 -24 -12 -11 -18 -20 -14 -20 5 0 1 -12 -9 -26 -12 -18
-13 -24 -4 -19 8 4 3 -2 -10 -13 -13 -11 -21 -24 -17 -31 6 -10 -5 -15 -26
-12 -4 0 -4 -7 -1 -16 4 -10 2 -14 -4 -10 -6 4 -17 -1 -24 -10 -10 -12 -10
-14 -1 -9 7 4 12 2 12 -5 0 -7 -10 -9 -24 -7 -15 3 -23 1 -20 -6 5 -13 -40
-49 -74 -60 -12 -4 -20 -11 -17 -15 2 -5 -7 -7 -20 -5 -14 1 -25 -2 -25 -8 0
-6 -6 -8 -14 -5 -8 3 -16 1 -18 -5 -2 -6 -26 -12 -52 -14 -27 -2 -50 -5 -53
-8 -2 -2 -18 0 -34 4 -17 5 -29 5 -29 0 0 -5 -7 -7 -15 -4 -8 4 -12 11 -8 18
5 8 3 8 -8 0 -11 -9 -37 -11 -69 -5 -3 1 2 6 10 12 13 9 13 10 -1 6 -9 -3 -22
0 -29 6 -10 9 -11 9 -6 0 4 -7 2 -13 -3 -13 -6 0 -11 4 -11 10 0 5 -3 9 -7 9
-22 -4 -33 2 -27 13 5 7 2 9 -8 6 -8 -4 -20 2 -27 14 -8 13 -19 18 -32 15 -10
-3 -17 -1 -13 4 3 5 0 9 -6 9 -6 0 -8 5 -5 10 3 6 -3 10 -14 10 -12 0 -21 6
-21 14 0 7 -11 21 -25 30 -14 9 -23 21 -20 26 3 5 -6 17 -20 26 -18 11 -22 19
-15 24 9 6 9 9 1 14 -6 4 -8 13 -4 19 4 8 1 7 -9 -1 -14 -11 -16 -10 -11 7 3
12 1 21 -4 21 -5 0 -8 14 -7 30 1 17 -3 33 -9 37 -6 4 -7 1 -2 -7 5 -9 4 -11
-4 -6 -9 6 -9 11 1 23 10 12 9 18 -7 29 -10 8 -14 14 -7 14 8 0 9 7 2 24 -6
16 -5 28 3 36 9 10 9 11 0 6 -8 -4 -11 1 -10 14 1 11 6 20 12 20 5 0 3 5 -5
10 -13 9 -13 10 0 10 13 0 13 1 0 10 -11 7 -11 10 -2 10 7 0 10 5 7 10 -3 6
-1 10 4 10 6 0 11 5 11 11 0 5 -5 7 -11 4 -6 -4 -5 2 2 13 7 12 18 18 24 14 5
-3 4 1 -3 10 -15 19 -6 48 15 48 13 0 13 3 3 16 -11 12 -11 15 0 12 7 -2 15 3
18 11 3 9 0 11 -9 6 -8 -4 -2 5 14 19 15 15 25 31 22 36 -4 6 2 7 11 3 12 -4
15 -3 10 5 -4 7 -1 12 9 12 9 0 13 5 10 10 -3 6 1 10 10 10 9 0 13 5 10 10 -3
6 2 10 11 10 10 0 14 3 11 7 -10 10 31 35 45 27 7 -4 8 -3 4 4 -3 6 3 16 15
22 15 8 19 8 15 1 -5 -7 -1 -8 9 -5 9 4 14 12 11 19 -3 9 3 12 20 10 13 -1 27
2 30 7 3 4 9 6 14 3 4 -3 11 2 14 11 6 16 36 16 48 -1z m-435 -170 c0 -8 -4
-12 -9 -9 -5 3 -6 10 -3 15 9 13 12 11 12 -6z m-27 -81 c0 -8 -19 -13 -24 -6
-3 5 1 9 9 9 8 0 15 -2 15 -3z m70 -304 c0 -5 -4 -10 -10 -10 -5 0 -10 5 -10
10 0 6 5 10 10 10 6 0 10 -4 10 -10z m-15 -258 c-3 -3 -11 0 -18 7 -9 10 -8
11 6 5 10 -3 15 -9 12 -12z"/>
<path d="M3110 4349 c0 -5 5 -7 10 -4 6 3 10 8 10 11 0 2 -4 4 -10 4 -5 0 -10
-5 -10 -11z"/>
<path d="M3416 4317 c3 -10 9 -15 12 -12 3 3 0 11 -7 18 -10 9 -11 8 -5 -6z"/>
<path d="M2755 3500 c10 -11 20 -20 23 -20 3 0 -3 9 -13 20 -10 11 -20 20 -23
20 -3 0 3 -9 13 -20z"/>
<path d="M3061 3171 c-1 -8 -4 -11 -8 -8 -3 4 -13 1 -21 -6 -13 -10 -14 -9 -8
1 11 19 -25 12 -42 -8 -10 -13 -11 -12 -6 5 5 18 4 18 -8 3 -11 -12 -18 -14
-32 -6 -15 8 -17 8 -11 -2 6 -10 4 -12 -8 -7 -9 3 -19 2 -22 -3 -4 -6 -11 -10
-16 -10 -6 0 -7 6 -3 13 6 9 5 9 -8 0 -8 -7 -27 -14 -41 -15 -19 -2 -23 -5
-16 -15 8 -9 4 -10 -20 -3 -17 5 -29 5 -26 0 5 -7 -41 -25 -57 -22 -5 1 -8 -4
-8 -10 0 -9 -4 -8 -10 2 -8 12 -10 12 -10 1 0 -11 -3 -11 -16 -1 -8 8 -14 9
-13 4 4 -23 -2 -36 -16 -30 -8 3 -15 0 -15 -5 0 -6 -9 -9 -20 -6 -11 3 -18 1
-15 -3 5 -8 -35 -37 -42 -32 -2 1 -10 2 -19 2 -10 0 -14 -6 -10 -15 3 -8 2
-14 -2 -14 -26 4 -42 -2 -36 -13 5 -8 2 -8 -10 1 -15 12 -17 12 -14 0 2 -8 -4
-13 -14 -13 -10 1 -15 -3 -12 -8 3 -5 -3 -12 -15 -15 -12 -3 -21 -11 -21 -19
0 -8 -8 -11 -20 -9 -11 2 -19 1 -17 -3 2 -4 -8 -18 -21 -32 -14 -14 -21 -19
-17 -11 5 9 4 12 -3 7 -7 -4 -12 -13 -12 -21 0 -8 -5 -17 -12 -21 -7 -5 -8 -3
-3 7 7 11 6 12 -7 2 -8 -7 -17 -10 -21 -7 -3 3 -3 -5 0 -18 3 -16 2 -19 -5
-10 -7 11 -10 10 -16 -3 -3 -9 -3 -22 1 -28 4 -7 -2 -5 -13 3 -10 8 -16 11
-12 6 9 -11 -14 -35 -27 -28 -5 3 -3 -3 5 -13 10 -13 11 -16 2 -11 -9 5 -15 1
-19 -14 -3 -12 -11 -19 -19 -16 -9 3 -11 0 -7 -11 4 -11 3 -14 -6 -9 -6 4 -11
4 -10 -1 3 -20 -2 -34 -10 -28 -6 3 -8 -4 -6 -15 2 -11 0 -18 -6 -15 -5 4 -9
-1 -9 -9 0 -9 -5 -16 -11 -16 -5 0 -7 5 -3 12 5 7 3 8 -5 3 -9 -5 -10 -10 -2
-18 7 -7 5 -15 -7 -24 -9 -8 -12 -12 -6 -9 6 3 11 -1 11 -9 0 -8 -8 -12 -20
-10 -15 4 -17 2 -7 -10 8 -10 9 -15 2 -15 -6 0 -9 -6 -6 -14 3 -8 0 -17 -7
-22 -8 -5 -10 -3 -4 6 5 8 4 11 -3 6 -6 -3 -9 -15 -7 -26 2 -11 -2 -20 -8 -20
-7 0 -6 -4 3 -10 12 -8 12 -10 1 -10 -8 0 -11 -7 -8 -19 3 -15 1 -18 -11 -14
-10 4 -13 2 -8 -5 3 -6 2 -13 -4 -17 -7 -4 -7 -12 0 -25 7 -13 6 -20 -3 -23
-9 -4 -9 -6 1 -6 7 -1 10 -6 7 -11 -5 -8 -12 -7 -23 2 -12 9 -11 6 2 -10 18
-20 16 -26 -9 -23 -5 1 -3 -4 6 -11 16 -13 15 -38 -2 -38 -6 0 -7 5 -3 12 5 7
3 8 -6 3 -10 -6 -9 -11 5 -22 11 -7 14 -13 8 -13 -9 0 -11 -20 -3 -40 1 -3 2
-8 1 -12 -1 -12 102 0 110 13 4 7 4 20 -1 30 -5 9 -6 20 -2 24 4 3 7 19 8 33
1 42 14 83 24 77 5 -3 7 6 4 20 -3 16 0 25 8 25 9 0 8 3 -2 10 -12 8 -12 10
-1 10 9 0 11 7 8 21 -4 15 -3 18 7 9 10 -8 13 -5 12 12 -1 13 5 29 14 36 13
12 13 13 0 7 -10 -4 -9 -2 2 8 10 8 15 17 11 20 -3 4 -1 7 5 7 7 0 12 7 12 16
0 9 5 12 12 8 8 -5 9 -2 5 9 -3 10 -2 17 4 17 6 0 7 5 3 12 -5 7 -2 9 9 5 11
-4 14 -2 11 8 -3 7 3 16 15 20 13 4 18 13 16 25 -3 14 1 17 12 13 10 -4 14 -2
10 4 -9 14 19 37 33 28 5 -3 10 -2 10 4 0 5 -6 12 -12 15 -7 4 -3 4 10 2 20
-4 22 -2 10 12 -7 9 -8 14 -4 10 10 -8 46 28 46 46 0 6 4 5 9 -3 7 -11 11 -9
20 8 7 11 18 21 26 21 8 0 15 5 15 10 0 6 10 10 23 10 13 0 17 3 10 8 -8 5 -3
11 13 19 16 7 22 7 17 1 -4 -7 -1 -8 6 -4 7 5 10 14 8 20 -3 7 1 13 9 13 7 0
11 -5 8 -11 -3 -6 1 -3 9 6 8 10 17 15 20 11 4 -3 9 2 13 11 4 11 13 15 26 10
13 -4 18 -2 14 5 -8 12 37 26 52 17 5 -3 16 2 23 11 10 12 10 14 2 9 -19 -11
-16 -1 4 15 10 8 14 9 10 2 -4 -6 -3 -14 3 -18 5 -3 10 0 10 9 0 9 8 13 25 12
14 -2 22 1 18 7 -4 6 2 8 15 5 12 -4 26 0 33 8 7 8 18 13 24 10 7 -2 25 2 41
11 16 8 49 16 74 17 25 1 51 5 58 9 7 5 12 4 12 -2 0 -6 7 -8 15 -5 8 4 13 9
10 14 -2 4 7 5 20 2 14 -2 22 -9 19 -16 -3 -6 0 -4 8 4 15 17 43 26 34 11 -4
-5 -1 -13 5 -17 8 -5 9 -3 4 6 -6 10 -3 12 13 8 12 -4 20 -2 17 2 -3 5 -1 11
5 15 5 3 10 2 10 -3 0 -6 7 -13 16 -16 8 -3 12 -2 9 3 -3 5 -1 12 5 16 5 3 10
1 10 -6 0 -9 3 -9 14 0 10 8 16 9 21 1 9 -15 38 -13 29 3 -4 6 2 4 13 -6 11
-9 22 -15 25 -12 10 10 69 12 75 2 3 -6 1 -7 -5 -3 -7 4 -12 2 -12 -3 0 -14
13 -14 28 1 8 8 12 8 12 1 0 -5 12 -9 27 -7 16 1 36 -5 46 -14 17 -15 17 -15
12 4 -7 19 -6 19 9 0 9 -11 16 -14 16 -8 0 7 5 12 11 12 5 0 8 -4 5 -9 -8 -12
11 -17 57 -16 34 0 42 -6 38 -28 -1 -5 3 -6 9 -2 6 3 8 12 4 18 -3 7 2 3 10
-7 12 -15 16 -16 16 -5 0 12 2 12 9 0 5 -8 18 -12 29 -9 16 4 20 1 17 -12 -2
-13 2 -16 14 -13 10 2 23 -2 30 -11 7 -8 19 -12 27 -9 8 3 14 1 14 -5 0 -5 7
-13 16 -16 9 -4 13 -2 8 5 -4 8 0 7 15 0 11 -7 21 -14 21 -17 0 -3 -4 -2 -10
1 -5 3 -10 1 -10 -5 0 -6 8 -9 18 -6 10 4 27 -1 38 -9 19 -15 19 -15 -1 -8
-11 3 -17 3 -13 -1 6 -7 30 -14 57 -15 7 -1 11 -7 8 -15 -4 -10 0 -13 14 -11
14 3 19 0 16 -8 -3 -8 4 -14 16 -15 12 0 23 -6 25 -12 2 -5 9 -7 15 -3 6 4 8
0 4 -10 -3 -10 -2 -17 3 -17 15 0 49 -37 42 -45 -4 -4 -2 -5 3 -3 6 2 21 -7
35 -19 13 -13 28 -23 33 -23 5 0 4 -7 -3 -15 -10 -12 -8 -14 9 -10 14 2 18 -1
14 -11 -3 -7 2 -17 11 -20 9 -3 16 -13 16 -21 0 -19 25 -44 35 -35 5 4 5 -1 2
-10 -4 -13 -1 -18 11 -19 9 0 12 -3 5 -5 -16 -7 -5 -34 13 -34 8 0 14 -5 14
-11 0 -5 -6 -7 -12 -3 -9 6 -9 3 0 -9 8 -9 11 -21 7 -26 -4 -7 1 -8 11 -4 11
4 15 3 10 -5 -3 -6 -2 -13 3 -16 5 -3 8 -20 7 -36 -2 -21 2 -29 11 -26 7 3 15
0 19 -6 4 -6 3 -9 -2 -6 -5 3 -15 -1 -23 -9 -11 -12 -10 -14 5 -11 12 2 19 -4
22 -17 2 -16 1 -17 -7 -5 -7 9 -11 10 -11 3 0 -6 5 -15 11 -19 6 -3 9 -17 6
-30 -2 -13 1 -25 7 -28 8 -3 7 -7 -2 -13 -23 -17 24 -48 73 -48 37 0 42 2 34
17 -6 11 -5 19 2 24 8 4 7 9 -2 15 -12 7 -12 9 0 9 8 0 4 8 -10 21 -13 11 -18
18 -11 14 6 -3 12 -1 12 5 0 7 7 10 18 6 14 -5 14 -4 -2 9 -11 8 -20 28 -21
45 -1 16 -4 33 -8 36 -4 4 -2 12 3 19 7 8 3 19 -11 34 -11 12 -18 29 -15 37 3
8 -1 14 -9 14 -8 0 -15 5 -15 11 0 5 4 8 8 5 5 -3 9 1 9 9 0 8 -6 15 -13 15
-7 0 -10 9 -7 23 4 18 3 19 -7 7 -10 -13 -11 -12 -7 6 2 11 -2 29 -9 39 -8 10
-14 15 -14 9 0 -5 -5 -2 -10 6 -13 20 -12 39 1 20 9 -13 10 -13 6 0 -2 8 -11
14 -20 12 -11 -2 -14 3 -10 17 2 10 -1 22 -8 26 -8 5 -10 4 -5 -3 4 -7 5 -12
2 -12 -3 0 -10 10 -17 21 -9 17 -8 20 2 14 8 -5 10 -4 5 3 -4 7 -14 12 -22 12
-8 0 -13 4 -9 9 3 5 -4 12 -14 16 -12 4 -18 12 -14 21 3 7 0 14 -7 14 -6 0 -8
5 -4 12 4 6 3 9 -2 5 -5 -3 -23 6 -39 20 -29 25 -29 25 -2 9 43 -26 32 -9 -13
19 -28 18 -38 30 -34 42 5 14 4 15 -4 4 -8 -11 -15 -9 -35 11 -14 14 -23 29
-19 32 3 4 -1 4 -10 1 -10 -4 -22 2 -32 17 -9 12 -16 19 -16 14 0 -5 -8 0 -17
10 -10 10 -25 20 -33 22 -8 2 -16 8 -18 13 -2 5 -12 9 -22 9 -10 0 -22 5 -26
12 -5 7 -3 8 6 3 8 -5 11 -4 7 3 -4 5 -18 9 -32 8 -13 -2 -22 1 -19 6 3 5 -2
8 -12 6 -13 -2 -19 3 -18 15 2 14 -1 15 -12 6 -10 -8 -14 -8 -14 -1 0 6 -7 9
-15 6 -8 -4 -17 1 -21 9 -3 9 -13 13 -25 10 -11 -3 -19 0 -19 7 0 7 -7 10 -16
6 -8 -3 -12 -2 -9 4 3 6 1 10 -5 10 -6 0 -8 5 -4 12 4 7 3 8 -5 4 -6 -4 -9
-12 -6 -17 4 -5 2 -9 -4 -9 -5 0 -11 4 -13 10 -1 5 -18 10 -36 12 -19 1 -36 6
-38 10 -3 4 5 5 16 3 12 -2 18 0 14 6 -3 6 -9 8 -12 5 -3 -3 -12 0 -20 7 -13
9 -14 9 -8 0 5 -9 0 -13 -13 -13 -12 0 -21 4 -21 9 0 11 -19 9 -39 -3 -8 -5
-12 -5 -9 0 3 5 -1 16 -10 24 -14 13 -15 13 -10 -1 4 -10 0 -15 -11 -14 -25 2
-42 15 -35 28 3 7 -2 3 -10 -7 -10 -12 -16 -15 -16 -7 0 7 -6 11 -14 8 -8 -3
-16 -3 -19 -1 -8 8 -295 10 -290 2 2 -5 -1 -8 -6 -8 -6 0 -11 6 -11 13 0 9 -3
8 -9 -2 -7 -11 -9 -11 -14 0 -4 12 -6 11 -6 0z m1390 -788 c13 -16 12 -17 -3
-4 -17 13 -22 21 -14 21 2 0 10 -8 17 -17z"/>
<path d="M4270 2729 c0 -5 5 -7 10 -4 6 3 10 8 10 11 0 2 -4 4 -10 4 -5 0 -10
-5 -10 -11z"/>
<path d="M4370 2150 c0 -5 5 -10 11 -10 5 0 7 5 4 10 -3 6 -8 10 -11 10 -2 0
-4 -4 -4 -10z"/>
</g>
</svg>
